# xmcd CD database file
#
# Track frame offsets:
#	150
#	14480
#	32010
#	44562
#	57112
#	70845
#	90717
#	101632
#	115372
#	127980
#	142225
#	160857
#
# Disc length: 2379 seconds
#
# Revision: 0
# Processed by: cddbd v1.5.1PL0 Copyright (c) Steve Scherf et al.
# Submitted via: CDex 1.51
#
DISCID=a809490c
DTITLE=Jean Ferrat - Les plus belles chansons d'amour
DYEAR=1900
DGENRE=Français
TTITLE0=que serais-je sans toi  ( 1964 )
TTITLE1=L'embellie  ( 1980 )
TTITLE2=deux enfants au soleil  ( 1961 )
TTITLE3=c'est si peu dire que je t'aime  ( 1965 )
TTITLE4=ce qu'on est bien mon amour  ( 1967 )
TTITLE5=chante l'amour  ( 1991 )
TTITLE6=aimer à perdre la raison  ( 1971 )
TTITLE7=l'amour est cerise  ( 1980 )
TTITLE8=c'est toujours la première fois  ( 1965 )
TTITLE9=comptine pur Clémentine  ( 1985 )
TTITLE10=parle-moi de nous  ( 1991 )
TTITLE11=je vous aime  ( 1971 )
EXTD=
EXTT0=
EXTT1=
EXTT2=
EXTT3=
EXTT4=
EXTT5=
EXTT6=
EXTT7=
EXTT8=
EXTT9=
EXTT10=
EXTT11=
PLAYORDER=
